<svg width="297" height="136" viewBox="0 0 297 136" fill="none" xmlns="http://www.w3.org/2000/svg">
<g clip-path="url(#clip0_179_1258)">
<path fill-rule="evenodd" clip-rule="evenodd" d="M-0.176147 -0.176147C98.7117 -0.176147 197.599 -0.176147 296.487 -0.176147C296.487 45.1573 296.487 90.4904 296.487 135.824C197.599 135.824 98.7117 135.824 -0.176147 135.824C-0.176147 90.4904 -0.176147 45.1573 -0.176147 -0.176147Z" fill="#FDFDFD"/>
<path fill-rule="evenodd" clip-rule="evenodd" d="M61.1296 8.27979C61.4808 14.5603 61.5982 20.9023 61.4819 27.3057C60.4249 27.3057 59.3679 27.3057 58.3109 27.3057C59.1734 26.9628 60.1131 26.8454 61.1296 26.9534C61.1296 20.7288 61.1296 14.5043 61.1296 8.27979Z" fill="#F4CA9F"/>
<path fill-rule="evenodd" clip-rule="evenodd" d="M122.083 27.3057C120.217 26.95 118.338 26.8913 116.445 27.1295C115.597 27.7309 114.657 28.0245 113.627 28.0103C114.329 27.4244 115.151 27.0133 116.093 26.7772C117.855 26.5423 119.616 26.5423 121.378 26.7772C121.701 26.8753 121.936 27.0514 122.083 27.3057Z" fill="#C05A5D"/>
<path fill-rule="evenodd" clip-rule="evenodd" d="M226.021 27.3057C224.496 27.135 223.087 27.3699 221.793 28.0103C221.793 27.658 221.793 27.3057 221.793 26.9533C223.273 26.8417 224.683 26.9592 226.021 27.3057Z" fill="#E2989A"/>
<path fill-rule="evenodd" clip-rule="evenodd" d="M240.114 32.943C239.403 31.334 238.933 29.6311 238.705 27.8342C237.648 27.5993 236.591 27.5993 235.534 27.8342C235.328 28.2931 235.093 28.7041 234.829 29.0674C234.779 28.4464 234.896 27.8592 235.181 27.3057C236.457 26.8975 237.749 26.8388 239.057 27.1296C239.588 29.0243 239.94 30.9621 240.114 32.943Z" fill="#C85859"/>
<path fill-rule="evenodd" clip-rule="evenodd" d="M90.0207 27.3058C88.024 27.3058 86.0277 27.3058 84.031 27.3058C84.031 34.1175 84.031 40.9294 84.031 47.741C87.2084 47.7593 90.3794 47.6416 93.544 47.3887C93.0324 47.6712 92.4454 47.8474 91.7823 47.9172C89.0838 48.0933 86.3825 48.1518 83.6787 48.0933C83.6787 41.0467 83.6787 34.0001 83.6787 26.9534C85.8596 26.8397 87.9736 26.9571 90.0207 27.3058Z" fill="#CA666B"/>
<path fill-rule="evenodd" clip-rule="evenodd" d="M104.114 48.0932C104.114 41.1639 104.114 34.2348 104.114 27.3056C102.94 27.3056 101.765 27.3056 100.591 27.3056C100.591 34.2348 100.591 41.1639 100.591 48.0932C100.239 41.1079 100.122 34.0611 100.238 26.9533C101.648 26.9533 103.057 26.9533 104.466 26.9533C104.583 34.0611 104.465 41.1079 104.114 48.0932Z" fill="#D78A8E"/>
<path fill-rule="evenodd" clip-rule="evenodd" d="M104.114 48.0933C102.94 48.0933 101.765 48.0933 100.591 48.0933C100.591 41.164 100.591 34.2349 100.591 27.3057C101.765 27.3057 102.94 27.3057 104.114 27.3057C104.114 34.2349 104.114 41.164 104.114 48.0933Z" fill="#BC343C"/>
<path fill-rule="evenodd" clip-rule="evenodd" d="M101.295 27.658C102.103 27.5677 102.866 27.6851 103.586 28.0103C103.762 34.4687 103.821 40.9282 103.762 47.3886C102.836 47.5971 101.896 47.7145 100.943 47.7409C100.83 41.0198 100.948 34.3255 101.295 27.658Z" fill="#D12B32"/>
<path fill-rule="evenodd" clip-rule="evenodd" d="M137.233 27.3057C137.233 32.943 137.233 38.5803 137.233 44.2176C139.23 44.2176 141.226 44.2176 143.223 44.2176C143.223 45.5096 143.223 46.8013 143.223 48.0933C140.052 48.0933 136.881 48.0933 133.71 48.0933C133.71 41.164 133.71 34.2349 133.71 27.3057C134.884 27.3057 136.059 27.3057 137.233 27.3057Z" fill="#BA353C"/>
<path fill-rule="evenodd" clip-rule="evenodd" d="M206.642 43.8653C205.883 48.0084 203.417 49.4765 199.243 48.2695C197.724 47.6895 196.725 46.691 196.249 45.2746C196.962 44.4438 197.784 43.7392 198.715 43.1606C199.34 43.4319 199.869 43.8431 200.3 44.3938C201.956 44.9974 202.778 44.4689 202.767 42.8083C203.118 37.703 203.235 32.5353 203.119 27.3057C204.293 27.3057 205.468 27.3057 206.642 27.3057C206.642 32.8256 206.642 38.3453 206.642 43.8653Z" fill="#CA3038"/>
<path fill-rule="evenodd" clip-rule="evenodd" d="M206.642 43.8652C206.642 38.3452 206.642 32.8255 206.642 27.3056C205.468 27.3056 204.293 27.3056 203.119 27.3056C203.235 32.5352 203.118 37.7029 202.767 42.8082C202.767 37.5233 202.767 32.2383 202.767 26.9533C204.176 26.9533 205.585 26.9533 206.995 26.9533C207.111 32.6524 206.993 38.2896 206.642 43.8652Z" fill="#DE7578"/>
<path fill-rule="evenodd" clip-rule="evenodd" d="M215.451 27.3057C214.319 27.1965 213.262 27.3139 212.28 27.658C211.928 34.291 211.811 40.9853 211.927 47.7409C213.102 47.7409 214.276 47.7409 215.451 47.7409C214.231 48.0869 212.939 48.2042 211.575 48.0932C211.575 41.0466 211.575 34 211.575 26.9533C212.939 26.8424 214.231 26.9598 215.451 27.3057Z" fill="#B0494F"/>
<path fill-rule="evenodd" clip-rule="evenodd" d="M215.451 27.3057C215.451 34.1174 215.451 40.9293 215.451 47.7409C214.276 47.7409 213.102 47.7409 211.927 47.7409C211.811 40.9853 211.928 34.291 212.28 27.658C213.262 27.3139 214.319 27.1965 215.451 27.3057Z" fill="#C72F37"/>
<path fill-rule="evenodd" clip-rule="evenodd" d="M287.679 27.3057C288.971 27.3057 290.262 27.3057 291.554 27.3057C291.554 34.2349 291.554 41.164 291.554 48.0933C290.262 48.0933 288.971 48.0933 287.679 48.0933C287.679 41.164 287.679 34.2349 287.679 27.3057Z" fill="#B6363F"/>
<path fill-rule="evenodd" clip-rule="evenodd" d="M288.031 27.6581C289.088 27.6581 290.145 27.6581 291.202 27.6581C291.202 34.3524 291.202 41.0467 291.202 47.741C290.145 47.741 289.088 47.741 288.031 47.741C288.031 41.0467 288.031 34.3524 288.031 27.6581Z" fill="#CE2C35"/>
<path fill-rule="evenodd" clip-rule="evenodd" d="M122.083 27.3057C125.696 28.3934 128.104 30.7422 129.306 34.3523C130.616 41.3081 127.974 45.9472 121.378 48.2694C115.263 49.3525 110.977 47.0623 108.518 41.399C106.672 35.4777 108.374 31.0148 113.627 28.0104C114.657 28.0245 115.597 27.7309 116.446 27.1295C118.338 26.8913 120.217 26.95 122.083 27.3057Z" fill="#CD3038"/>
<path fill-rule="evenodd" clip-rule="evenodd" d="M116.798 30.4766C124.266 30.6135 126.908 34.2543 124.725 41.3989C121.335 45.6255 117.576 45.9778 113.451 42.4559C110.393 37.1995 111.509 33.2065 116.798 30.4766Z" fill="#FCFAFA"/>
<path fill-rule="evenodd" clip-rule="evenodd" d="M137.233 44.2177C138.926 44.5654 140.688 44.6831 142.518 44.57C142.518 45.5097 142.518 46.449 142.518 47.3887C139.699 47.3887 136.881 47.3887 134.062 47.3887C134.062 40.8117 134.062 34.2349 134.062 27.6581C135.002 27.6581 135.941 27.6581 136.881 27.6581C136.765 33.2398 136.882 38.7597 137.233 44.2177Z" fill="#D12B34"/>
<path fill-rule="evenodd" clip-rule="evenodd" d="M185.503 34.7047C185.972 36.114 186.442 37.5234 186.912 38.9327C185.427 39.6148 183.783 39.8498 181.979 39.6374C182.685 37.3444 183.566 35.1131 184.622 32.9431C184.888 33.5824 185.182 34.1696 185.503 34.7047Z" fill="#FCF7F6"/>
<path fill-rule="evenodd" clip-rule="evenodd" d="M276.052 27.3057C280.828 27.3233 282.883 29.6722 282.218 34.3524C281.757 35.1068 281.228 35.8114 280.632 36.4663C284.353 38.7505 285.117 41.8042 282.922 45.627C281.887 46.9373 280.537 47.642 278.87 47.741C276.287 47.741 273.703 47.741 271.119 47.741C271.119 40.9293 271.119 34.1175 271.119 27.3057C272.763 27.3057 274.407 27.3057 276.052 27.3057Z" fill="#CD3037"/>
<path fill-rule="evenodd" clip-rule="evenodd" d="M274.995 31.1814C274.995 32.4733 274.995 33.7651 274.995 35.057C275.699 35.057 276.404 35.057 277.109 35.057C276.366 35.3981 275.544 35.5158 274.642 35.4094C274.531 33.929 274.648 32.5197 274.995 31.1814Z" fill="#E79A9E"/>
<path fill-rule="evenodd" clip-rule="evenodd" d="M277.109 35.057C276.404 35.057 275.699 35.057 274.995 35.057C274.995 33.7651 274.995 32.4732 274.995 31.1813C276.189 30.7038 277.304 30.9387 278.342 31.886C278.812 33.3334 278.401 34.3904 277.109 35.057Z" fill="#FBF6F5"/>
<path fill-rule="evenodd" clip-rule="evenodd" d="M186.912 28.0104C189.462 34.012 191.811 40.119 193.958 46.3316C193.958 46.8013 193.958 47.2713 193.958 47.741C192.784 47.741 191.61 47.741 190.435 47.741C190.435 47.6236 190.435 47.506 190.435 47.3886C190.493 46.2083 190.434 45.034 190.259 43.8653C190.142 44.1003 190.024 44.335 189.907 44.57C189.743 44.0658 189.449 43.655 189.026 43.3368C186.004 43.2727 183.009 43.0965 180.041 42.8083C179.439 43.6737 178.969 44.6133 178.632 45.627C178.28 45.0396 177.927 44.4527 177.575 43.8653C177.405 44.1993 177.346 44.5517 177.399 44.9223C177.047 44.9223 176.694 44.9223 176.342 44.9223C176.849 43.507 177.436 42.0977 178.104 40.6943C178.456 41.164 178.808 41.634 179.161 42.1037C179.278 41.9275 179.396 41.7513 179.513 41.5752C179.222 40.7271 178.869 39.9051 178.456 39.1088C178.516 38.2185 178.868 38.0423 179.513 38.5803C179.757 38.3954 179.933 38.1604 180.041 37.8757C180.215 38.4514 180.274 39.0387 180.218 39.6373C182.552 40.4001 184.901 40.5175 187.264 39.9897C187.348 39.5348 187.23 39.1825 186.912 38.9327C186.442 37.5234 185.972 36.114 185.503 34.7047C185.614 33.6224 185.497 32.5654 185.15 31.5337C184.715 31.7965 184.245 31.914 183.741 31.886C183.741 32.4733 183.741 33.0605 183.741 33.6477C183.389 33.6477 183.036 33.6477 182.684 33.6477C182.792 32.3449 182.557 31.1117 181.979 29.9482C182.364 29.385 182.834 28.974 183.389 28.7151C183.277 28.3108 183.042 28.0172 182.684 27.8342C184.112 27.5899 185.522 27.6486 186.912 28.0104Z" fill="#CE2E36"/>
<path fill-rule="evenodd" clip-rule="evenodd" d="M90.0208 27.3057C93.8178 27.7535 95.638 29.8675 95.4819 33.6477C95.0422 34.7325 94.3964 35.6722 93.5441 36.4663C97.2682 38.7717 98.0314 41.8253 95.8342 45.627C95.2148 46.425 94.4513 47.0123 93.5441 47.3886C90.3794 47.6416 87.2085 47.7593 84.0311 47.741C84.0311 40.9293 84.0311 34.1175 84.0311 27.3057C86.0278 27.3057 88.0241 27.3057 90.0208 27.3057Z" fill="#CD3037"/>
<path fill-rule="evenodd" clip-rule="evenodd" d="M90.0207 31.1814C91.4928 32.0154 91.7863 33.1899 90.9016 34.7047C90.6651 34.9698 90.3716 35.0873 90.0207 35.057C89.3161 35.057 88.6114 35.057 87.9067 35.057C87.9067 33.7651 87.9067 32.4733 87.9067 31.1814C88.6114 31.1814 89.3161 31.1814 90.0207 31.1814Z" fill="#FBF8F7"/>
<path fill-rule="evenodd" clip-rule="evenodd" d="M90.0208 31.1813C89.3161 31.1813 88.6114 31.1813 87.9068 31.1813C87.9068 32.4732 87.9068 33.7651 87.9068 35.057C88.6114 35.057 89.3161 35.057 90.0208 35.057C89.2784 35.398 88.4561 35.5157 87.5544 35.4093C87.5544 33.8825 87.5544 32.3558 87.5544 30.829C88.4561 30.7227 89.2784 30.8402 90.0208 31.1813Z" fill="#EB9399"/>
<path fill-rule="evenodd" clip-rule="evenodd" d="M186.912 28.0104C185.522 27.6486 184.112 27.5898 182.684 27.8342C183.042 28.0172 183.276 28.3108 183.388 28.7151C182.834 28.9739 182.364 29.385 181.979 29.9482C182.557 31.1117 182.792 32.3449 182.684 33.6477C183.036 33.6477 183.388 33.6477 183.741 33.6477C183.741 33.0605 183.741 32.4733 183.741 31.886C184.245 31.9139 184.715 31.7965 185.15 31.5337C185.497 32.5654 185.614 33.6224 185.502 34.7047C185.182 34.1696 184.888 33.5824 184.622 32.943C183.566 35.1131 182.685 37.3444 181.979 39.6373C183.672 39.9851 185.434 40.1028 187.264 39.9897C184.901 40.5175 182.552 40.4001 180.218 39.6373C180.274 39.0387 180.215 38.4514 180.041 37.8757C179.933 38.1604 179.757 38.3954 179.513 38.5803C178.868 38.0423 178.516 38.2185 178.456 39.1088C178.869 39.9051 179.221 40.7271 179.513 41.5752C179.396 41.7513 179.278 41.9275 179.161 42.1037C178.808 41.634 178.456 41.164 178.104 40.6943C177.436 42.0977 176.849 43.507 176.342 44.9223C176.694 44.9223 177.047 44.9223 177.399 44.9223C177.346 44.5517 177.405 44.1993 177.575 43.8653C177.927 44.4526 178.28 45.0396 178.632 45.627C178.969 44.6133 179.439 43.6736 180.041 42.8083C183.009 43.0965 186.003 43.2727 189.026 43.3368C189.449 43.655 189.743 44.0658 189.907 44.57C190.024 44.335 190.142 44.1003 190.259 43.8653C190.434 45.034 190.493 46.2083 190.435 47.3886C189.783 46.3137 189.313 45.1393 189.026 43.8653C186.09 43.8653 183.153 43.8653 180.218 43.8653C179.682 45.2369 179.212 46.6463 178.808 48.0933C177.399 48.0933 175.99 48.0933 174.58 48.0933C176.957 41.196 179.541 34.3842 182.331 27.6581C183.095 27.5406 183.858 27.4232 184.622 27.3057C185.541 27.3174 186.305 27.5523 186.912 28.0104Z" fill="#CA383D"/>
<path fill-rule="evenodd" clip-rule="evenodd" d="M87.9067 38.9326C89.7248 38.7251 91.3103 39.1951 92.6632 40.3419C93.2953 42.1505 92.7668 43.3836 91.0777 44.0414C90.0271 44.2169 88.9701 44.2757 87.9067 44.2176C87.9067 42.4559 87.9067 40.6943 87.9067 38.9326Z" fill="#FBF8F6"/>
<path fill-rule="evenodd" clip-rule="evenodd" d="M137.233 27.3057C136.059 27.3057 134.884 27.3057 133.71 27.3057C133.71 34.2349 133.71 41.1639 133.71 48.0932C133.359 41.1079 133.241 34.0611 133.357 26.9533C134.721 26.8424 136.013 26.9598 137.233 27.3057Z" fill="#C76E70"/>
<path fill-rule="evenodd" clip-rule="evenodd" d="M274.642 38.9327C276.081 38.8777 277.49 39.0539 278.87 39.4612C280.55 40.7669 280.668 42.1762 279.223 43.6891C277.725 44.1102 276.198 44.2863 274.642 44.2176C274.642 42.456 274.642 40.6943 274.642 38.9327Z" fill="#FBF1F0"/>
<path fill-rule="evenodd" clip-rule="evenodd" d="M186.912 38.9327C187.23 39.1825 187.348 39.5348 187.264 39.9897C185.434 40.1028 183.672 39.9851 181.979 39.6373C183.783 39.8498 185.427 39.6148 186.912 38.9327Z" fill="#E3999A"/>
<path fill-rule="evenodd" clip-rule="evenodd" d="M253.503 26.601C261.43 25.9774 266.011 29.5594 267.244 37.3472C266.252 45.7164 261.554 49.3571 253.15 48.2694C247.106 45.7548 244.581 41.2334 245.575 34.7047C246.281 32.8257 247.279 31.1228 248.57 29.5959C250.096 28.3547 251.741 27.3564 253.503 26.601Z" fill="#CD3139"/>
<path fill-rule="evenodd" clip-rule="evenodd" d="M254.207 30.4766C261.368 30.5332 264.128 34.0566 262.487 41.0466C258.54 46.0884 254.429 46.2061 250.155 41.3989C248.17 36.4546 249.521 32.8137 254.207 30.4766Z" fill="#FDFBFA"/>
<path fill-rule="evenodd" clip-rule="evenodd" d="M10.7461 39.285C10.9271 39.9939 10.9859 40.6986 10.9223 41.399C10.7764 41.238 10.6003 41.1203 10.3938 41.0467C10.0123 41.3515 9.95358 41.7038 10.2176 42.1037C10.7576 42.8302 11.4622 43.3002 12.3316 43.513C12.6104 43.9517 12.7866 44.4213 12.8601 44.9223C11.4643 44.1137 10.2899 43.0567 9.33679 41.7514C9.72133 40.8628 10.1911 40.0408 10.7461 39.285Z" fill="#EDB676"/>
<path fill-rule="evenodd" clip-rule="evenodd" d="M159.078 43.8653C157.673 43.6306 156.205 43.5133 154.674 43.513C153.068 43.5161 151.6 43.7508 150.269 44.2176C149.804 45.3846 149.334 46.5589 148.86 47.7409C147.451 48.2106 146.041 48.2106 144.632 47.7409C147.118 41.0075 149.702 34.3132 152.383 27.658C153.897 27.249 155.424 27.1903 156.964 27.4819C159.722 34.2906 162.306 41.1612 164.715 48.0933C163.306 48.0933 161.896 48.0933 160.487 48.0933C160.016 46.6825 159.547 45.2732 159.078 43.8653Z" fill="#CD2F37"/>
<path fill-rule="evenodd" clip-rule="evenodd" d="M157.316 39.285C157.507 39.3062 157.625 39.4235 157.668 39.6374C155.736 40.1007 153.856 40.1007 152.031 39.6374C153.861 39.7505 155.623 39.6328 157.316 39.285Z" fill="#DE8F92"/>
<path fill-rule="evenodd" clip-rule="evenodd" d="M157.316 39.285C155.623 39.6328 153.861 39.7505 152.031 39.6374C152.875 37.4022 153.755 35.1707 154.674 32.9431C155.657 35.0257 156.538 37.1397 157.316 39.285Z" fill="#FCF6F6"/>
<path fill-rule="evenodd" clip-rule="evenodd" d="M212.28 27.6581C213.219 27.6581 214.159 27.6581 215.098 27.6581C215.216 34.2391 215.098 40.8159 214.746 47.3887C214.394 40.9336 214.276 34.4741 214.394 28.0104C213.924 28.0104 213.454 28.0104 212.984 28.0104C213.087 34.0076 212.97 39.9971 212.632 45.9793C213.121 47.3059 213.532 47.1882 213.865 45.627C214.039 46.2027 214.098 46.79 214.041 47.3887C213.454 47.3887 212.867 47.3887 212.28 47.3887C212.28 40.8117 212.28 34.2349 212.28 27.6581Z" fill="#D72831"/>
<path fill-rule="evenodd" clip-rule="evenodd" d="M226.021 27.3057C227.337 31.9591 228.864 36.5393 230.601 41.0467C231.952 36.9906 233.362 32.9974 234.829 29.0674C235.093 28.7041 235.328 28.2931 235.534 27.8342C236.591 27.5993 237.648 27.5993 238.705 27.8342C238.933 29.6311 239.403 31.3341 240.114 32.943C241.202 37.9451 242.024 42.9954 242.58 48.0933C241.288 48.0933 239.997 48.0933 238.705 48.0933C238.381 43.803 237.677 39.575 236.591 35.4094C235.174 39.3805 233.823 43.3735 232.539 47.3886C232.002 47.8185 231.355 48.0535 230.601 48.0933C229.921 48.0792 229.276 47.9619 228.663 47.741C227.253 43.5091 225.843 39.2811 224.435 35.057C223.65 39.3308 222.887 43.5588 222.145 47.741C221.082 47.7991 220.025 47.7403 218.974 47.5648C219.366 45.3071 219.601 43.0169 219.679 40.6943C220.312 36.448 221.017 32.2201 221.793 28.0104C223.087 27.37 224.496 27.1351 226.021 27.3057Z" fill="#CC3038"/>
<path fill-rule="evenodd" clip-rule="evenodd" d="M159.078 43.8653C156.112 43.7589 153.176 43.8763 150.27 44.2177C151.6 43.7508 153.068 43.5162 154.674 43.513C156.205 43.5134 157.673 43.6307 159.078 43.8653Z" fill="#E19499"/>
<path fill-rule="evenodd" clip-rule="evenodd" d="M79.8032 46.3316C79.8032 46.8012 79.8032 47.2712 79.8032 47.7409C78.6288 47.7409 77.4542 47.7409 76.2798 47.7409C75.813 46.4591 75.3434 45.1671 74.8705 43.8653C72.0593 43.4548 69.2406 43.396 66.4146 43.6891C65.7818 45.0139 65.1948 46.3643 64.6529 47.7409C63.2436 48.2106 61.8343 48.2106 60.4249 47.7409C63.0086 41.0466 65.5926 34.3523 68.1762 27.658C69.7793 27.1999 71.3648 27.1999 72.9327 27.658C75.3997 33.8273 77.6899 40.0516 79.8032 46.3316Z" fill="#CC3138"/>
<path fill-rule="evenodd" clip-rule="evenodd" d="M68.1762 38.9327C69.6613 39.6148 71.3053 39.8498 73.1089 39.6373C71.2838 40.1007 69.4044 40.1007 67.4716 39.6373C67.5966 39.2773 67.8316 39.0423 68.1762 38.9327Z" fill="#E29497"/>
<path fill-rule="evenodd" clip-rule="evenodd" d="M73.1088 39.6374C71.3052 39.8498 69.6612 39.6148 68.1761 38.9327C68.7392 36.8656 69.5027 34.8692 70.4663 32.9431C71.5187 35.1012 72.3995 37.3328 73.1088 39.6374Z" fill="#FCF8F8"/>
<path fill-rule="evenodd" clip-rule="evenodd" d="M276.052 27.3057C274.407 27.3057 272.764 27.3057 271.119 27.3057C271.119 34.1174 271.119 40.9293 271.119 47.7409C273.703 47.7409 276.287 47.7409 278.87 47.7409C276.234 48.0904 273.533 48.2077 270.767 48.0932C270.767 41.0466 270.767 34 270.767 26.9533C272.597 26.8404 274.359 26.9578 276.052 27.3057Z" fill="#C1676B"/>
<path fill-rule="evenodd" clip-rule="evenodd" d="M219.679 40.6943C219.601 43.0168 219.366 45.307 218.974 47.5647C220.025 47.7402 221.082 47.799 222.145 47.7409C220.92 48.1436 219.629 48.2025 218.27 47.9171C218.649 45.4599 219.119 43.0521 219.679 40.6943Z" fill="#BD474C"/>
<path fill-rule="evenodd" clip-rule="evenodd" d="M79.8031 46.3316C80.3073 46.7826 80.5423 47.3699 80.5078 48.0933C79.0273 48.205 77.6179 48.0873 76.2798 47.7409C77.4541 47.7409 78.6288 47.7409 79.8031 47.7409C79.8031 47.2713 79.8031 46.8013 79.8031 46.3316Z" fill="#AC474F"/>
<path fill-rule="evenodd" clip-rule="evenodd" d="M193.958 46.3316C194.254 46.7336 194.489 47.2033 194.663 47.7409C193.201 48.2021 191.792 48.2021 190.435 47.7409C191.61 47.7409 192.784 47.7409 193.958 47.7409C193.958 47.2713 193.958 46.8013 193.958 46.3316Z" fill="#AB464E"/>
<path fill-rule="evenodd" clip-rule="evenodd" d="M61.1295 8.27978C61.1295 14.5043 61.1295 20.7288 61.1295 26.9534C60.113 26.8454 59.1733 26.9628 58.3108 27.3057C54.3193 27.4092 50.4436 28.1726 46.6839 29.5958C33.2591 35.7962 25.3904 46.19 23.0777 60.7772C22.8071 61.046 22.6309 61.3984 22.5492 61.8342C22.3143 64.3005 22.3143 66.7668 22.5492 69.2332C22.6309 69.669 22.8071 70.0213 23.0777 70.2901C25.1133 85.94 33.3344 96.9211 47.7409 103.233C65.0101 108.205 79.3383 103.86 90.7253 90.1969C97.7748 89.9034 104.821 89.9622 111.865 90.373C110.459 93.7012 108.815 96.931 106.933 100.062C103.277 99.2571 99.6368 98.2586 96.0103 97.0673C93.8065 98.7409 91.751 100.62 89.8445 102.705C89.7289 103.658 89.8463 104.598 90.1968 105.523C91.4451 108.338 92.561 111.216 93.544 114.155C92.1942 115.262 90.6672 116.084 88.9637 116.622C87.8721 117.262 86.8151 117.966 85.7927 118.736C85.1226 119.194 84.4179 119.429 83.6787 119.44C81.3882 116.272 78.9219 113.277 76.2797 110.456C73.5051 111.766 70.5688 112.471 67.4714 112.57C66.9345 116.478 66.2298 120.354 65.3575 124.197C62.0751 124.607 58.7868 124.666 55.4922 124.373C55.0461 124.264 54.6349 124.088 54.259 123.845C53.733 120.099 53.3218 116.341 53.0258 112.57C49.9303 112.03 46.8766 111.384 43.8652 110.632C41.332 113.634 38.8068 116.629 36.2901 119.617C33.062 117.8 30.0671 115.686 27.3056 113.275C28.5552 109.78 29.8471 106.316 31.1813 102.881C29.1339 100.656 27.1374 98.3657 25.1917 96.0104C24.7219 95.893 24.2521 95.7753 23.7823 95.658C20.5591 96.9764 17.3881 98.3858 14.2694 99.886C12.1202 96.7978 10.2411 93.5683 8.63207 90.1969C11.6079 87.5156 14.544 84.7558 17.4404 81.9171C16.6648 79.0023 15.9602 76.0663 15.3264 73.1088C11.5535 72.7646 7.79525 72.2949 4.05176 71.6995C4.05176 70.2901 4.05176 68.8808 4.05176 67.4715C4.34335 65.4213 4.51951 63.3073 4.58026 61.1295C5.71793 60.4777 6.95109 60.1254 8.27974 60.0725C9.56783 60.3495 10.8597 60.4083 12.1554 60.2487C11.9942 60.1028 11.8768 59.9267 11.8031 59.7202C12.0647 59.4799 12.2996 59.2449 12.5077 59.0155C13.4846 58.6079 14.5416 58.3729 15.6787 58.3109C15.9588 55.1646 16.6634 52.1109 17.7927 49.1502C16.2971 47.5785 14.6529 46.1692 12.86 44.9223C12.7866 44.4213 12.6104 43.9516 12.3315 43.5129C11.4622 43.3001 10.7575 42.8301 10.2176 42.1036C9.95352 41.7037 10.0123 41.3514 10.3937 41.0466C10.6002 41.1203 10.7764 41.2379 10.9222 41.399C10.9858 40.6985 10.9271 39.9939 10.7461 39.285C11.9948 37.1421 13.1692 34.9105 14.2694 32.5907C14.5043 32.4732 14.7391 32.3558 14.974 32.2383C18.1105 33.3312 21.2814 34.4469 24.487 35.5855C24.9957 35.8607 25.4654 35.8018 25.8963 35.4093C28.0103 33.1779 30.1243 30.9464 32.2383 28.715C31.0391 25.6454 29.8059 22.5919 28.5388 19.5544C28.3039 19.0846 28.3039 18.6148 28.5388 18.1451C31.4899 16.6988 34.3672 15.1133 37.1709 13.3886C38.0176 13.1665 38.6638 13.4601 39.1087 14.2694C41.0043 16.7092 42.9421 19.1168 44.9222 21.4922C47.8142 20.784 50.7505 20.1381 53.7305 19.5544C54.1057 15.8943 54.6342 12.2535 55.316 8.63211C57.2211 8.28922 59.1589 8.17176 61.1295 8.27978Z" fill="#F5A856"/>
<path fill-rule="evenodd" clip-rule="evenodd" d="M122.083 70.6425C122.905 70.6425 123.727 70.6425 124.549 70.6425C124.549 65.7098 124.549 60.7772 124.549 55.8445C123.856 55.7603 123.21 55.8777 122.611 56.1969C122.557 59.5137 122.381 62.567 122.083 65.3575C122.083 62.0692 122.083 58.7805 122.083 55.4922C123.023 55.4922 123.962 55.4922 124.902 55.4922C124.902 60.6599 124.902 65.8272 124.902 70.9948C123.885 71.1026 122.945 70.9853 122.083 70.6425Z" fill="#337F62"/>
<path fill-rule="evenodd" clip-rule="evenodd" d="M169.295 55.8445C168.473 55.8445 167.651 55.8445 166.829 55.8445C166.829 60.8944 166.829 65.9448 166.829 70.9947C166.478 65.8895 166.361 60.7218 166.477 55.4921C167.493 55.3843 168.433 55.5017 169.295 55.8445Z" fill="#8BC0AC"/>
<path fill-rule="evenodd" clip-rule="evenodd" d="M211.223 55.4922C212.162 55.4922 213.102 55.4922 214.041 55.4922C214.041 60.6599 214.041 65.8272 214.041 70.9948C213.102 70.9948 212.162 70.9948 211.223 70.9948C211.223 65.8272 211.223 60.6599 211.223 55.4922Z" fill="#18885B"/>
<path fill-rule="evenodd" clip-rule="evenodd" d="M78.7461 55.8446C78.7461 56.7843 78.7461 57.7236 78.7461 58.6633C76.8671 58.6633 74.9878 58.6633 73.1088 58.6633C73.1088 59.4852 73.1088 60.3076 73.1088 61.1296C74.9878 61.1296 76.8671 61.1296 78.7461 61.1296C78.7461 62.1866 78.7461 63.2436 78.7461 64.3006C76.8671 64.3006 74.9878 64.3006 73.1088 64.3006C73.1088 65.5926 73.1088 66.8842 73.1088 68.1762C74.9878 68.1762 76.8671 68.1762 78.7461 68.1762C78.7461 69.1159 78.7461 70.0552 78.7461 70.9949C76.0448 70.9949 73.3438 70.9949 70.6425 70.9949C70.6425 65.9449 70.6425 60.8946 70.6425 55.8446C73.3438 55.8446 76.0448 55.8446 78.7461 55.8446Z" fill="#208B5F"/>
<path fill-rule="evenodd" clip-rule="evenodd" d="M86.1451 55.4923C88.5625 55.3038 90.9115 55.5973 93.1917 56.3731C95.7729 57.4597 95.8906 58.6928 93.5441 60.0726C91.0087 58.1513 88.3074 57.8578 85.4404 59.1917C83.2148 61.7645 83.0974 64.4654 85.0881 67.2954C88.1122 69.0902 90.9308 68.7967 93.5441 66.4145C94.2956 66.9751 94.8826 67.6798 95.3057 68.5285C92.8528 70.8758 89.9165 71.7566 86.4974 71.171C81.3347 68.9682 79.6319 65.1514 81.3886 59.7202C82.614 57.8455 84.1995 56.4362 86.1451 55.4923Z" fill="#1E895E"/>
<path fill-rule="evenodd" clip-rule="evenodd" d="M106.228 64.3005C106.519 66.233 106.696 68.2297 106.757 70.2901C107.355 70.6094 108.001 70.7267 108.694 70.6425C108.812 65.8215 108.694 61.0062 108.342 56.1969C107.799 55.7575 107.27 55.7575 106.757 56.1969C106.695 58.0234 106.519 59.785 106.228 61.4819C106.228 59.4852 106.228 57.4889 106.228 55.4922C107.168 55.4922 108.107 55.4922 109.047 55.4922C109.047 60.6599 109.047 65.8272 109.047 70.9948C108.107 70.9948 107.168 70.9948 106.228 70.9948C106.228 68.7635 106.228 66.5318 106.228 64.3005Z" fill="#398B6C"/>
<path fill-rule="evenodd" clip-rule="evenodd" d="M169.295 55.8446C169.646 59.8922 169.763 64.0028 169.648 68.1762C171.057 68.1762 172.466 68.1762 173.876 68.1762C173.876 69.1159 173.876 70.0552 173.876 70.9949C171.527 70.9949 169.178 70.9949 166.829 70.9949C166.829 65.9449 166.829 60.8946 166.829 55.8446C167.651 55.8446 168.473 55.8446 169.295 55.8446Z" fill="#228B60"/>
<path fill-rule="evenodd" clip-rule="evenodd" d="M184.798 55.8445C183.976 55.8445 183.154 55.8445 182.332 55.8445C182.332 59.4851 182.332 63.1261 182.332 66.7668C181.981 63.0719 181.864 59.3135 181.979 55.4921C182.996 55.3843 183.936 55.5017 184.798 55.8445Z" fill="#64A58B"/>
<path fill-rule="evenodd" clip-rule="evenodd" d="M192.197 67.4715C192.197 63.5958 192.197 59.7202 192.197 55.8445C191.375 55.8445 190.553 55.8445 189.731 55.8445C189.846 59.4316 189.729 62.955 189.378 66.4145C189.378 62.7739 189.378 59.1329 189.378 55.4922C190.435 55.4922 191.492 55.4922 192.549 55.4922C192.665 59.5483 192.548 63.5416 192.197 67.4715Z" fill="#8DC2AE"/>
<path fill-rule="evenodd" clip-rule="evenodd" d="M266.539 55.8446C267.478 55.8446 268.418 55.8446 269.357 55.8446C269.357 60.8946 269.357 65.9449 269.357 70.9949C268.418 70.9949 267.478 70.9949 266.539 70.9949C266.539 65.9449 266.539 60.8946 266.539 55.8446Z" fill="#1D885D"/>
<path fill-rule="evenodd" clip-rule="evenodd" d="M266.539 55.8446C267.521 55.5004 268.578 55.3831 269.71 55.4923C269.826 60.7219 269.708 65.8896 269.357 70.9949C269.357 65.9449 269.357 60.8946 269.357 55.8446C268.418 55.8446 267.478 55.8446 266.539 55.8446Z" fill="#B1E3D0"/>
<path fill-rule="evenodd" clip-rule="evenodd" d="M271.471 55.8445C275.756 55.4358 280.101 55.377 284.508 55.6684C284.818 56.1461 284.935 56.6746 284.86 57.2538C284.546 56.9857 284.311 56.6334 284.155 56.1969C283.627 56.0795 283.098 55.9618 282.57 55.8445C281.87 55.8688 281.342 56.1035 280.984 56.5492C280.875 56.9854 280.699 56.9854 280.456 56.5492C280.281 57.2443 280.223 57.949 280.28 58.6632C279.223 58.6632 278.166 58.6632 277.109 58.6632C277.851 58.3221 278.673 58.2044 279.575 58.3108C279.575 57.4889 279.575 56.6665 279.575 55.8445C276.874 55.8445 274.173 55.8445 271.471 55.8445Z" fill="#B3DBCB"/>
<path fill-rule="evenodd" clip-rule="evenodd" d="M271.471 55.8446C274.173 55.8446 276.874 55.8446 279.575 55.8446C279.575 56.6666 279.575 57.4889 279.575 58.3109C278.673 58.2045 277.851 58.3222 277.109 58.6633C277.109 62.7739 277.109 66.8842 277.109 70.9949C276.169 70.9949 275.23 70.9949 274.29 70.9949C274.29 66.7669 274.29 62.5389 274.29 58.3109C273.35 58.3109 272.411 58.3109 271.471 58.3109C271.471 57.4889 271.471 56.6666 271.471 55.8446Z" fill="#1C865C"/>
<path fill-rule="evenodd" clip-rule="evenodd" d="M195.72 55.4922C196.688 55.3819 197.628 55.4992 198.539 55.8445C200.643 59.0638 202.815 62.2348 205.057 65.3575C205.233 62.1886 205.292 59.0176 205.233 55.8445C206.173 55.8445 207.112 55.8445 208.052 55.8445C208.052 60.8945 208.052 65.9448 208.052 70.9948C207.013 71.0924 206.015 70.975 205.057 70.6424C203.03 67.4109 200.916 64.2399 198.715 61.1295C198.539 64.4157 198.48 67.7044 198.539 70.9948C197.599 70.9948 196.66 70.9948 195.72 70.9948C195.72 65.8271 195.72 60.6598 195.72 55.4922Z" fill="#19865B"/>
<path fill-rule="evenodd" clip-rule="evenodd" d="M78.7461 55.8446C76.0448 55.8446 73.3438 55.8446 70.6425 55.8446C70.6425 60.8945 70.6425 65.9449 70.6425 70.9948C70.2916 65.8895 70.1742 60.7219 70.2901 55.4922C73.1736 55.3774 75.9923 55.4951 78.7461 55.8446Z" fill="#5DAB8D"/>
<path fill-rule="evenodd" clip-rule="evenodd" d="M12.5078 59.0155C12.2997 59.2449 12.0648 59.4799 11.8031 59.7202C11.8769 59.9266 11.9943 60.1028 12.1555 60.2487C10.8598 60.4083 9.56792 60.3494 8.27983 60.0725C6.95119 60.1253 5.71803 60.4777 4.58035 61.1295C4.51961 63.3073 4.34344 65.4212 4.05185 67.4715C3.99326 65.1196 4.05199 62.7707 4.22802 60.4248C6.93798 59.704 9.6979 59.2339 12.5078 59.0155Z" fill="#F2B372"/>
<path fill-rule="evenodd" clip-rule="evenodd" d="M271.471 58.3109C272.411 58.3109 273.35 58.3109 274.29 58.3109C274.29 62.5389 274.29 66.7669 274.29 70.9949C273.94 66.9473 273.822 62.8366 273.938 58.6632C273.036 58.7696 272.214 58.652 271.471 58.3109Z" fill="#AEE1CD"/>
<path fill-rule="evenodd" clip-rule="evenodd" d="M60.0725 55.4922C62.7738 55.4922 65.4748 55.4922 68.1761 55.4922C68.1761 56.5492 68.1761 57.6062 68.1761 58.6632C67.3541 58.6632 66.5318 58.6632 65.7098 58.6632C65.7098 62.7739 65.7098 66.8842 65.7098 70.9948C64.6528 70.9948 63.5958 70.9948 62.5388 70.9948C62.5388 66.7668 62.5388 62.5389 62.5388 58.3109C61.7168 58.3109 60.8945 58.3109 60.0725 58.3109C60.0725 57.3712 60.0725 56.4319 60.0725 55.4922Z" fill="#319068"/>
<path fill-rule="evenodd" clip-rule="evenodd" d="M106.228 64.3005C104.466 64.3005 102.705 64.3005 100.943 64.3005C100.594 66.3476 100.477 68.4616 100.591 70.6425C99.8859 70.6425 99.1812 70.6425 98.4766 70.6425C98.4766 65.8272 98.4766 61.0122 98.4766 56.1969C99.0639 56.1969 99.6509 56.1969 100.238 56.1969C100.238 58.0759 100.238 59.9552 100.238 61.8342C102.302 61.9476 104.299 61.8303 106.228 61.4819C106.519 59.785 106.695 58.0234 106.756 56.1969C107.27 55.7575 107.799 55.7575 108.342 56.1969C108.694 61.0062 108.812 65.8215 108.694 70.6425C108.001 70.7267 107.355 70.6094 106.756 70.2902C106.695 68.2297 106.519 66.2331 106.228 64.3005Z" fill="#11875A"/>
<path fill-rule="evenodd" clip-rule="evenodd" d="M232.363 55.4922C235.181 55.4922 238 55.4922 240.819 55.4922C240.819 56.5492 240.819 57.6062 240.819 58.6632C238.94 58.6632 237.06 58.6632 235.181 58.6632C235.181 59.4852 235.181 60.3075 235.181 61.1295C237.06 61.1295 238.94 61.1295 240.819 61.1295C240.819 62.1865 240.819 63.2435 240.819 64.3005C238.94 64.3005 237.06 64.3005 235.181 64.3005C235.181 65.5925 235.181 66.8842 235.181 68.1762C237.06 68.1762 238.94 68.1762 240.819 68.1762C240.819 69.1158 240.819 70.0551 240.819 70.9948C238 70.9948 235.181 70.9948 232.363 70.9948C232.363 65.8272 232.363 60.6599 232.363 55.4922Z" fill="#268D62"/>
<path fill-rule="evenodd" clip-rule="evenodd" d="M128.073 55.4922C129.012 55.4922 129.951 55.4922 130.891 55.4922C130.891 60.6599 130.891 65.8272 130.891 70.9948C129.951 70.9948 129.012 70.9948 128.073 70.9948C128.073 65.8272 128.073 60.6599 128.073 55.4922Z" fill="#297F5E"/>
<path fill-rule="evenodd" clip-rule="evenodd" d="M128.777 55.8446C129.356 55.7692 129.885 55.8869 130.363 56.197C130.539 61.0109 130.598 65.8258 130.539 70.6426C129.834 70.6426 129.13 70.6426 128.425 70.6426C128.314 65.6821 128.431 60.7494 128.777 55.8446Z" fill="#0C8A59"/>
<path fill-rule="evenodd" clip-rule="evenodd" d="M249.275 55.8446C247.513 55.8446 245.751 55.8446 243.99 55.8446C243.99 60.8946 243.99 65.9449 243.99 70.9948C243.639 65.8896 243.521 60.7219 243.637 55.4923C245.584 55.3792 247.464 55.4965 249.275 55.8446Z" fill="#60AA8D"/>
<path fill-rule="evenodd" clip-rule="evenodd" d="M106.228 61.4819C104.299 61.8303 102.302 61.9476 100.238 61.8342C100.238 59.9552 100.238 58.0759 100.238 56.1969C99.651 56.1969 99.0641 56.1969 98.4767 56.1969C98.4767 61.0122 98.4767 65.8272 98.4767 70.6425C99.1814 70.6425 99.886 70.6425 100.591 70.6425C100.477 68.4615 100.594 66.3476 100.943 64.3005C100.943 66.5318 100.943 68.7635 100.943 70.9948C100.003 70.9948 99.0641 70.9948 98.1244 70.9948C98.1244 65.8272 98.1244 60.6599 98.1244 55.4922C99.0641 55.4922 100.003 55.4922 100.943 55.4922C100.943 57.4889 100.943 59.4852 100.943 61.4819C102.705 61.4819 104.466 61.4819 106.228 61.4819Z" fill="#338565"/>
<path fill-rule="evenodd" clip-rule="evenodd" d="M249.275 55.8446C250.832 56.0493 251.948 56.8713 252.622 58.3109C253.428 61.0778 252.548 63.0741 249.979 64.3006C251.198 66.4452 252.373 68.618 253.503 70.8187C252.446 71.0537 251.389 71.0537 250.332 70.8187C249.291 68.6772 248.117 66.6221 246.808 64.6529C246.457 66.7538 246.34 68.8678 246.456 70.9949C245.634 70.9949 244.812 70.9949 243.99 70.9949C243.99 65.9449 243.99 60.8946 243.99 55.8446C245.751 55.8446 247.513 55.8446 249.275 55.8446Z" fill="#17885B"/>
<path fill-rule="evenodd" clip-rule="evenodd" d="M248.57 58.6632C247.983 58.6632 247.396 58.6632 246.808 58.6632C246.808 59.6029 246.808 60.5422 246.808 61.4818C247.396 61.4818 247.983 61.4818 248.57 61.4818C247.948 61.8204 247.243 61.9381 246.456 61.8342C246.456 60.6599 246.456 59.4852 246.456 58.3109C247.243 58.2069 247.948 58.3246 248.57 58.6632Z" fill="#A3D2C0"/>
<path fill-rule="evenodd" clip-rule="evenodd" d="M248.57 58.6632C249.787 58.8845 250.198 59.5892 249.803 60.7772C249.516 61.2434 249.104 61.478 248.57 61.4819C247.983 61.4819 247.396 61.4819 246.808 61.4819C246.808 60.5422 246.808 59.6029 246.808 58.6632C247.396 58.6632 247.983 58.6632 248.57 58.6632Z" fill="#F7FCFB"/>
<path fill-rule="evenodd" clip-rule="evenodd" d="M23.0778 60.7772C23.0778 63.9482 23.0778 67.1192 23.0778 70.2902C22.8073 70.0213 22.6311 69.669 22.5493 69.2332C22.3144 66.7669 22.3144 64.3005 22.5493 61.8342C22.6311 61.3984 22.8073 61.0461 23.0778 60.7772Z" fill="#F8E0BE"/>
<path fill-rule="evenodd" clip-rule="evenodd" d="M184.798 55.8446C184.645 59.8647 184.822 63.858 185.326 67.8239C186.688 68.7928 187.98 68.6751 189.202 67.4715C189.372 67.1375 189.431 66.7852 189.378 66.4146C189.728 62.955 189.846 59.4317 189.731 55.8446C190.553 55.8446 191.375 55.8446 192.197 55.8446C192.197 59.7203 192.197 63.5959 192.197 67.4715C190.649 71.4117 187.948 72.4098 184.093 70.4664C182.865 69.5443 182.278 68.3112 182.332 66.7669C182.332 63.1262 182.332 59.4852 182.332 55.8446C183.154 55.8446 183.976 55.8446 184.798 55.8446Z" fill="#17875B"/>
<path fill-rule="evenodd" clip-rule="evenodd" d="M155.554 55.4922C156.611 55.4922 157.668 55.4922 158.725 55.4922C160.499 60.5697 162.378 65.6196 164.363 70.6425C163.445 71.0484 162.505 71.1068 161.544 70.8186C161.041 69.8709 160.688 68.8727 160.487 67.8238C158.243 67.7076 156.012 67.8252 153.793 68.1762C153.509 69.027 153.157 69.8494 152.736 70.6425C151.825 70.9878 150.885 71.1051 149.917 70.9948C151.725 65.8085 153.604 60.6408 155.554 55.4922Z" fill="#1C885D"/>
<path fill-rule="evenodd" clip-rule="evenodd" d="M156.964 60.0725C157.933 61.4438 158.638 62.9705 159.078 64.6529C157.807 65.0013 156.515 65.119 155.202 65.0052C155.649 63.3098 156.237 61.6658 156.964 60.0725Z" fill="#E9F9F3"/>
<path fill-rule="evenodd" clip-rule="evenodd" d="M216.156 55.4923C217.31 55.3922 218.426 55.5095 219.503 55.8446C220.679 59.3714 221.854 62.8948 223.026 66.4146C224.337 62.8933 225.688 59.37 227.078 55.8446C228.017 55.3749 228.957 55.3749 229.896 55.8446C228.136 60.7734 226.374 65.706 224.611 70.6425C223.672 71.1122 222.732 71.1122 221.793 70.6425C219.907 65.5686 218.027 60.5183 216.156 55.4923Z" fill="#1B885D"/>
<path fill-rule="evenodd" clip-rule="evenodd" d="M284.86 57.2539C285.439 58.4233 286.026 59.598 286.622 60.7772C287.528 59.3179 288.35 57.7909 289.088 56.1969C290.145 55.7273 291.202 55.7273 292.259 56.1969C290.998 58.8363 289.648 61.4199 288.207 63.9482C288.031 66.2941 287.973 68.6431 288.031 70.9949C287.091 70.9949 286.152 70.9949 285.212 70.9949C285.271 68.6431 285.212 66.2941 285.036 63.9482C283.676 61.4601 282.325 58.9937 280.984 56.5493C281.342 56.1036 281.87 55.8689 282.57 55.8446C283.098 55.9619 283.627 56.0796 284.155 56.1969C284.311 56.6335 284.546 56.9858 284.86 57.2539Z" fill="#19885C"/>
<path fill-rule="evenodd" clip-rule="evenodd" d="M122.083 65.3575C122.381 62.567 122.557 59.5137 122.611 56.1969C123.21 55.8776 123.856 55.7603 124.549 55.8445C124.549 60.7772 124.549 65.7098 124.549 70.6424C123.727 70.6424 122.905 70.6424 122.083 70.6424C119.918 67.4947 117.745 64.3237 115.565 61.1295C115.388 64.4157 115.33 67.7044 115.388 70.9948C114.449 70.9948 113.509 70.9948 112.57 70.9948C112.57 65.8271 112.57 60.6598 112.57 55.4922C113.538 55.3819 114.477 55.4992 115.388 55.8445C117.503 59.1275 119.734 62.2985 122.083 65.3575Z" fill="#16875B"/>
<path fill-rule="evenodd" clip-rule="evenodd" d="M257.731 55.4922C260.25 54.9415 262.246 55.7046 263.72 57.7823C263.074 58.4282 262.428 59.0743 261.782 59.7202C260.989 58.4426 259.873 58.0314 258.435 58.487C258.251 58.6846 258.134 58.9197 258.083 59.1917C260.126 61.1179 262.063 63.173 263.896 65.3575C264.374 69.929 262.319 71.8668 257.731 71.1709C256.552 70.462 255.612 69.5224 254.912 68.3523C255.368 67.6208 256.014 67.0923 256.85 66.7668C257.457 67.3235 258.103 67.852 258.788 68.3523C260.725 68.7634 261.489 67.9999 261.078 66.0621C258.831 64.403 256.952 62.4067 255.44 60.0725C255.079 57.9775 255.842 56.4509 257.731 55.4922Z" fill="#19875C"/>
<path fill-rule="evenodd" clip-rule="evenodd" d="M138.995 55.4922C142.664 54.8763 145.835 55.816 148.508 58.3108C147.947 59.0624 147.243 59.6493 146.394 60.0725C143.884 58.1199 141.182 57.8264 138.29 59.1917C135.857 62.1104 135.975 64.929 138.643 67.6476C141.546 69.108 144.13 68.6972 146.394 66.4145C147.151 66.9955 147.856 67.6413 148.508 68.3523C145.348 71.4606 141.707 72.1652 137.586 70.4663C133.475 67.3009 132.594 63.3664 134.943 58.6632C136.057 57.2507 137.407 56.1937 138.995 55.4922Z" fill="#1D885D"/>
<path fill-rule="evenodd" clip-rule="evenodd" d="M192.549 75.9275C193.733 76.1751 193.851 76.6452 192.902 77.3368C192.147 77.0067 192.029 76.537 192.549 75.9275Z" fill="#404040"/>
<path fill-rule="evenodd" clip-rule="evenodd" d="M226.373 75.9275C226.756 75.9697 226.991 76.2047 227.078 76.6321C226.794 77.4978 226.442 77.4978 226.021 76.6321C226.149 76.3915 226.266 76.1565 226.373 75.9275Z" fill="#2B2B2B"/>
<path fill-rule="evenodd" clip-rule="evenodd" d="M235.181 75.9275C236.365 76.1751 236.483 76.6452 235.534 77.3368C234.779 77.0067 234.661 76.537 235.181 75.9275Z" fill="#3A3A3A"/>
<path fill-rule="evenodd" clip-rule="evenodd" d="M154.85 75.9275C155.7 75.9958 156.052 76.4655 155.907 77.3368C155.554 77.3368 155.202 77.3368 154.85 77.3368C154.85 76.8671 154.85 76.3971 154.85 75.9275Z" fill="#3F3F3F"/>
<path fill-rule="evenodd" clip-rule="evenodd" d="M287.679 75.9275C288.084 76.03 288.319 76.3235 288.383 76.8083C288.018 78.8627 287.666 80.9179 287.326 82.9741C287.144 80.6307 287.261 78.2817 287.679 75.9275Z" fill="#262626"/>
<path fill-rule="evenodd" clip-rule="evenodd" d="M159.078 78.3938C160.235 78.3124 161.116 78.7824 161.72 79.8031C161.864 81.5895 161.688 83.3511 161.192 85.0881C160.9 83.3381 160.723 81.5764 160.663 79.8031C159.534 79.2309 158.594 79.4656 157.845 80.5078C157.423 82.0056 157.247 83.5326 157.316 85.0881C156.964 85.0881 156.611 85.0881 156.259 85.0881C156.52 82.9614 156.872 80.8474 157.316 78.7461C157.983 79.5266 158.57 79.4092 159.078 78.3938Z" fill="#303030"/>
<path fill-rule="evenodd" clip-rule="evenodd" d="M175.285 76.9845C175.181 77.772 175.299 78.4766 175.637 79.0985C175.616 79.2898 175.499 79.4071 175.285 79.4508C174.828 78.5795 174.828 77.7572 175.285 76.9845Z" fill="#8E8E8E"/>
<path fill-rule="evenodd" clip-rule="evenodd" d="M228.487 78.3938C228.927 78.4209 229.221 78.6559 229.368 79.0984C230.639 78.1228 231.813 78.2402 232.891 79.4508C232.951 81.328 232.892 83.2073 232.715 85.0881C232.301 85.1652 231.949 85.0479 231.658 84.7357C231.992 82.997 232.109 81.2353 232.01 79.4508C230.788 79.2306 229.789 79.5829 229.015 80.5078C228.852 82.0397 228.675 83.5663 228.487 85.0881C228.135 85.0881 227.782 85.0881 227.43 85.0881C227.67 82.8257 228.023 80.5944 228.487 78.3938Z" fill="#393939"/>
<path fill-rule="evenodd" clip-rule="evenodd" d="M280.28 76.2798C280.632 76.2798 280.984 76.2798 281.337 76.2798C281.021 79.244 280.551 82.1803 279.927 85.0881C279.684 84.9031 279.507 84.6681 279.399 84.3834C278.252 85.0631 277.019 85.2393 275.699 84.9119C273.747 81.7758 274.511 79.6034 277.99 78.3938C278.756 78.5115 279.402 78.8638 279.927 79.4508C280.274 78.4192 280.391 77.3622 280.28 76.2798Z" fill="#252525"/>
<path fill-rule="evenodd" clip-rule="evenodd" d="M241.876 82.2694C241.589 83.0202 241.413 83.8422 241.347 84.7357C241.172 83.9219 241.113 83.0999 241.171 82.2694C241.788 79.9416 240.966 79.0607 238.705 79.6269C237.953 81.3932 237.366 83.2137 236.943 85.0881C236.535 83.931 236.476 82.7563 236.767 81.5648C237.141 80.6737 237.434 79.734 237.648 78.7461C237.891 78.9311 238.068 79.1661 238.176 79.4508C239.35 78.0414 240.525 78.0414 241.699 79.4508C241.875 80.383 241.933 81.3227 241.876 82.2694Z" fill="#2A2A2A"/>
<path fill-rule="evenodd" clip-rule="evenodd" d="M254.56 76.2798C255.166 77.0401 255.459 77.9798 255.44 79.0985C256.645 78.0802 257.702 78.1976 258.611 79.4508C258.787 81.3263 258.846 83.2052 258.788 85.0881C258.374 85.1653 258.021 85.0479 257.731 84.7358C258.122 83.1112 258.18 81.4668 257.907 79.8031C256.56 79.1682 255.562 79.5206 254.912 80.8601C254.608 82.2529 254.491 83.6622 254.56 85.0881C254.207 85.0881 253.855 85.0881 253.503 85.0881C253.75 82.1345 254.102 79.1985 254.56 76.2798Z" fill="#323232"/>
<path fill-rule="evenodd" clip-rule="evenodd" d="M175.285 76.9845C174.828 77.7571 174.828 78.5795 175.285 79.4508C175.499 79.4071 175.616 79.2898 175.637 79.0985C177.302 77.989 178.653 78.3413 179.689 80.1555C180.102 84.2707 178.399 85.68 174.58 84.3834C174.345 84.6184 174.111 84.8531 173.876 85.0881C173.48 82.0683 173.833 79.1323 174.933 76.2798C175.214 76.4408 175.331 76.6758 175.285 76.9845Z" fill="#262626"/>
<path fill-rule="evenodd" clip-rule="evenodd" d="M175.99 79.4508C178.81 79.0428 179.809 80.2171 178.984 82.9741C177.667 84.6572 176.258 84.7745 174.756 83.3264C174.285 81.7113 174.696 80.4193 175.99 79.4508Z" fill="#F0F0F0"/>
<path fill-rule="evenodd" clip-rule="evenodd" d="M183.036 78.3938C183.389 78.3938 183.741 78.3938 184.093 78.3938C184.093 78.7461 184.093 79.0984 184.093 79.4508C183.311 79.3373 182.664 79.5723 182.156 80.1554C181.834 81.8276 181.422 83.4716 180.922 85.0881C180.805 84.8531 180.687 84.6184 180.57 84.3834C180.82 82.867 180.996 81.3403 181.099 79.8031C181.21 78.8705 181.621 78.6358 182.332 79.0984C182.692 78.9734 182.927 78.7383 183.036 78.3938Z" fill="#212121"/>
<path fill-rule="evenodd" clip-rule="evenodd" d="M201.71 78.3938C202.689 78.2254 203.393 78.5778 203.824 79.4508C203.18 79.5988 202.476 79.5988 201.71 79.4508C201.7 80.7386 202.287 81.6783 203.472 82.2695C204.21 83.8613 203.74 84.9183 202.062 85.4405C201.268 85.2206 200.681 84.751 200.301 84.0312C201.104 84.3169 201.985 84.3169 202.943 84.0312C203.178 83.5615 203.178 83.0915 202.943 82.6218C200.924 81.6526 200.513 80.2432 201.71 78.3938Z" fill="#262626"/>
<path fill-rule="evenodd" clip-rule="evenodd" d="M220.383 78.3938C221.568 78.2423 222.566 78.5946 223.378 79.4508C223.487 79.1661 223.663 78.9311 223.907 78.7461C224.098 80.8439 224.098 82.9579 223.907 85.0881C223.335 85.1374 222.924 84.9024 222.674 84.3834C219.266 85.7984 217.74 84.624 218.093 80.8601C218.69 79.8531 219.454 79.0311 220.383 78.3938Z" fill="#2F2F2F"/>
<path fill-rule="evenodd" clip-rule="evenodd" d="M220.031 79.4508C222.851 79.0428 223.85 80.2171 223.026 82.9741C222.303 84.3101 221.187 84.7209 219.679 84.2072C218.671 82.5322 218.788 80.9468 220.031 79.4508Z" fill="#F4F4F4"/>
<path fill-rule="evenodd" clip-rule="evenodd" d="M276.757 79.4507C279.399 78.9807 280.397 80.0377 279.751 82.6217C278.631 84.6483 277.221 84.8833 275.523 83.3263C275.052 81.7268 275.463 80.4348 276.757 79.4507Z" fill="#F4F4F4"/>
<path fill-rule="evenodd" clip-rule="evenodd" d="M270.415 78.3938C271.525 78.2032 272.406 78.5555 273.057 79.4508C273.385 81.3868 273.209 83.2662 272.528 85.0881C272.273 83.3338 272.214 81.5722 272.352 79.8031C271.11 79.2077 270.053 79.4423 269.181 80.5078C268.875 82.0313 268.581 83.5583 268.301 85.0881C267.722 82.861 267.957 80.747 269.005 78.7461C269.544 79.5431 270.014 79.4254 270.415 78.3938Z" fill="#333333"/>
<path fill-rule="evenodd" clip-rule="evenodd" d="M216.508 78.3938C216.977 78.3938 217.447 78.3938 217.917 78.3938C217.917 78.7461 217.917 79.0984 217.917 79.4508C216.922 79.3317 216.158 79.684 215.627 80.5078C215.32 82.0312 215.027 83.5582 214.746 85.0881C214.394 83.1957 214.512 81.3167 215.098 79.4508C215.564 79.0949 216.033 78.7426 216.508 78.3938Z" fill="#222222"/>
<path fill-rule="evenodd" clip-rule="evenodd" d="M234.829 78.7461C235.079 78.4276 235.431 78.3103 235.886 78.3938C235.904 80.7336 235.551 82.9649 234.829 85.0881C235.025 83.2655 235.26 81.4453 235.534 79.6269C235.469 79.1421 235.234 78.8486 234.829 78.7461Z" fill="#B7B7B7"/>
<path fill-rule="evenodd" clip-rule="evenodd" d="M234.829 78.7461C235.234 78.8486 235.469 79.1421 235.534 79.6269C235.26 81.4453 235.025 83.2655 234.829 85.0881C234.424 84.9855 234.189 84.692 234.124 84.2072C234.475 82.3994 234.71 80.5789 234.829 78.7461Z" fill="#202020"/>
<path fill-rule="evenodd" clip-rule="evenodd" d="M122.788 80.5078C122.788 80.9774 122.788 81.4474 122.788 81.9171C121.074 81.8047 119.43 81.922 117.855 82.2694C118.011 84.2612 119.068 84.907 121.026 84.2073C122.209 83.6347 122.327 83.8697 121.378 84.9119C117.994 85.7561 116.643 84.4056 117.326 80.8601C118.204 78.8057 119.672 78.1598 121.731 78.9223C122.309 79.3201 122.661 79.8486 122.788 80.5078Z" fill="#212121"/>
<path fill-rule="evenodd" clip-rule="evenodd" d="M118.912 79.4508C120.538 79.0784 121.713 79.6069 122.435 81.0363C120.909 81.2713 119.382 81.2713 117.855 81.0363C118.167 80.4673 118.519 79.9388 118.912 79.4508Z" fill="#EFEFEF"/>
<path fill-rule="evenodd" clip-rule="evenodd" d="M132.653 78.3938C134.884 78.5111 136.059 79.6858 136.176 81.9171C134.399 81.8019 132.637 81.9192 130.891 82.2694C131.126 82.8568 131.361 83.4437 131.596 84.0311C132.947 84.2957 134.239 84.2957 135.472 84.0311C133.445 86.0341 131.742 85.7991 130.363 83.3264C129.894 81.0937 130.657 79.4497 132.653 78.3938Z" fill="#232323"/>
<path fill-rule="evenodd" clip-rule="evenodd" d="M132.301 79.4508C133.131 79.3933 133.953 79.4518 134.767 79.6269C135.308 80.018 135.543 80.5465 135.472 81.2124C134.043 81.3266 132.633 81.2093 131.244 80.8601C131.604 80.3837 131.957 79.9141 132.301 79.4508Z" fill="#EEEEEE"/>
<path fill-rule="evenodd" clip-rule="evenodd" d="M137.938 75.9275C138.29 75.9275 138.642 75.9275 138.995 75.9275C138.91 79.0424 138.44 82.0961 137.585 85.0881C137.468 84.7946 137.35 84.5007 137.233 84.2073C137.567 81.4555 137.802 78.6957 137.938 75.9275Z" fill="#414141"/>
<path fill-rule="evenodd" clip-rule="evenodd" d="M129.13 78.3938C129.508 78.6584 129.566 79.0107 129.306 79.4508C128.308 81.2124 127.309 82.9741 126.311 84.7357C125.607 82.8582 124.902 80.9788 124.197 79.0984C124.488 78.7863 124.84 78.6689 125.254 78.7461C125.377 80.2403 125.788 81.6497 126.487 82.9741C127.372 81.4376 128.253 79.9109 129.13 78.3938Z" fill="#272727"/>
<path fill-rule="evenodd" clip-rule="evenodd" d="M154.497 78.7461C154.929 78.9758 155.164 79.387 155.202 79.9793C155.038 81.7085 154.744 83.4117 154.321 85.0881C154.216 82.9727 154.274 80.8587 154.497 78.7461Z" fill="#171717"/>
<path fill-rule="evenodd" clip-rule="evenodd" d="M283.098 78.3938C284.077 78.2254 284.782 78.5778 285.212 79.4508C284.606 79.5375 283.902 79.5375 283.098 79.4508C283.099 80.807 283.745 81.7463 285.036 82.2695C285.428 84.9303 284.371 85.7526 281.865 84.7358C281.601 84.3359 281.66 83.9836 282.041 83.6788C282.638 84.3056 283.343 84.4818 284.155 84.2073C284.352 83.9519 284.47 83.6584 284.508 83.3265C284.169 82.3593 283.523 81.6547 282.57 81.2125C282.256 80.1562 282.432 79.2169 283.098 78.3938Z" fill="#222222"/>
<path fill-rule="evenodd" clip-rule="evenodd" d="M122.788 80.5078C123.123 81.0078 123.24 81.5948 123.14 82.2695C121.378 82.2695 119.617 82.2695 117.855 82.2695C119.43 81.9221 121.074 81.8047 122.788 81.9171C122.788 81.4475 122.788 80.9775 122.788 80.5078Z" fill="#8B8B8B"/>
<path fill-rule="evenodd" clip-rule="evenodd" d="M212.984 79.4508C212.495 81.1311 212.26 82.8927 212.28 84.7358C212.259 84.9271 212.141 85.0444 211.927 85.0881C211.605 83.7521 211.605 82.4012 211.927 81.0363C211.86 80.314 211.625 79.6682 211.223 79.0985C211.513 78.7863 211.866 78.669 212.28 78.7461C212.28 77.9241 212.28 77.1018 212.28 76.2798C212.632 76.2798 212.984 76.2798 213.337 76.2798C213.163 77.0923 213.046 77.9143 212.984 78.7461C214.394 78.9811 214.394 79.2158 212.984 79.4508Z" fill="#1D1D1D"/>
<path fill-rule="evenodd" clip-rule="evenodd" d="M212.984 79.4508C213.004 81.2938 212.769 83.0555 212.28 84.7357C212.26 82.8927 212.495 81.131 212.984 79.4508Z" fill="#989898"/>
<path fill-rule="evenodd" clip-rule="evenodd" d="M226.021 78.7461C226.372 78.7355 226.607 78.9117 226.725 79.2746C226.488 81.2339 226.136 83.1718 225.668 85.0881C225.456 82.9727 225.574 80.8587 226.021 78.7461Z" fill="#1C1C1C"/>
<path fill-rule="evenodd" clip-rule="evenodd" d="M249.627 79.4508C249.617 81.4066 249.382 83.2856 248.922 85.0881C248.879 83.1259 249.114 81.247 249.627 79.4508Z" fill="#B3B3B3"/>
<path fill-rule="evenodd" clip-rule="evenodd" d="M192.197 78.7461C192.647 79.1668 192.882 79.7538 192.902 80.5078C192.696 82.0291 192.579 83.5558 192.549 85.0881C192.197 85.0881 191.845 85.0881 191.492 85.0881C191.669 82.9667 191.904 80.8527 192.197 78.7461Z" fill="#3D3D3D"/>
<path fill-rule="evenodd" clip-rule="evenodd" d="M194.663 78.3938C195.098 78.4716 195.451 78.7066 195.72 79.0984C196.919 78.1475 198.035 78.2648 199.067 79.4508C199.395 81.3868 199.219 83.2662 198.539 85.0881C198.331 83.3377 198.272 81.576 198.363 79.8031C197.121 79.2077 196.064 79.4423 195.192 80.5078C194.927 82.0411 194.633 83.5678 194.311 85.0881C194.194 84.5596 194.076 84.0311 193.958 83.5026C194.175 81.7938 194.41 80.0906 194.663 78.3938Z" fill="#252525"/>
<path fill-rule="evenodd" clip-rule="evenodd" d="M165.42 78.3938C166.604 78.2423 167.602 78.5946 168.414 79.4508C168.766 78.5601 169.06 78.5601 169.295 79.4508C168.989 81.5612 168.695 83.6752 168.414 85.7927C167.229 87.5928 165.643 88.004 163.658 87.0259C162.85 85.6077 163.085 85.4904 164.363 86.6735C166.592 87.368 167.708 86.6048 167.71 84.3834C164.022 85.7494 162.613 84.4574 163.482 80.5077C163.961 79.6188 164.607 78.9141 165.42 78.3938Z" fill="#202021"/>
<path fill-rule="evenodd" clip-rule="evenodd" d="M165.067 79.4508C169.031 79.6935 169.618 81.279 166.829 84.2073C165.826 84.5399 164.945 84.3637 164.186 83.6788C163.754 82.0714 164.048 80.6621 165.067 79.4508Z" fill="#EEEEEE"/>
<path fill-rule="evenodd" clip-rule="evenodd" d="M115.741 81.2125C115.876 82.6179 115.641 83.9096 115.036 85.0881C115.145 83.7281 115.38 82.4365 115.741 81.2125Z" fill="#949494"/>
<path fill-rule="evenodd" clip-rule="evenodd" d="M103.409 84.0311C103.762 84.0311 104.114 84.0311 104.466 84.0311C104.466 84.3834 104.466 84.7358 104.466 85.0881C104.114 85.0881 103.762 85.0881 103.409 85.0881C103.409 84.7358 103.409 84.3834 103.409 84.0311Z" fill="#161616"/>
<path fill-rule="evenodd" clip-rule="evenodd" d="M141.813 78.3938C145.051 78.5269 146.166 80.1709 145.161 83.3264C144.14 84.9665 142.672 85.495 140.756 84.9119C138.664 82.3543 139.016 80.1819 141.813 78.3938Z" fill="#252525"/>
<path fill-rule="evenodd" clip-rule="evenodd" d="M141.461 79.4508C143.851 78.9663 144.966 79.9056 144.808 82.2694C143.971 84.469 142.562 84.9387 140.58 83.6788C140.148 82.0714 140.442 80.6621 141.461 79.4508Z" fill="#EFEFEF"/>
<path fill-rule="evenodd" clip-rule="evenodd" d="M149.565 78.3938C152.553 78.4871 153.669 80.0141 152.912 82.9741C151.571 85.3196 149.868 85.6719 147.803 84.0311C147.472 85.1948 147.178 86.3691 146.922 87.5544C146.74 84.5624 147.034 81.6264 147.803 78.7461C148.47 79.5265 149.057 79.4092 149.565 78.3938Z" fill="#212121"/>
<path fill-rule="evenodd" clip-rule="evenodd" d="M149.212 79.4508C152.033 79.0428 153.031 80.2171 152.207 82.9741C150.922 84.6762 149.513 84.7939 147.979 83.3264C147.508 81.7268 147.919 80.4348 149.212 79.4508Z" fill="#F0F0F0"/>
<path fill-rule="evenodd" clip-rule="evenodd" d="M286.622 83.6787C287.472 83.7471 287.824 84.2167 287.679 85.088C287.326 85.088 286.974 85.088 286.622 85.088C286.622 84.6184 286.622 84.1484 286.622 83.6787Z" fill="#232323"/>
<path fill-rule="evenodd" clip-rule="evenodd" d="M106.58 83.6787C106.933 83.6787 107.285 83.6787 107.637 83.6787C107.637 84.1484 107.637 84.6184 107.637 85.088C107.285 85.088 106.933 85.088 106.58 85.088C106.58 84.6184 106.58 84.1484 106.58 83.6787Z" fill="#3E3E3E"/>
<path fill-rule="evenodd" clip-rule="evenodd" d="M263.016 78.3937C264.162 78.2225 265.102 78.5748 265.834 79.4507C266.295 78.6083 266.648 78.6083 266.891 79.4507C266.488 81.3209 266.136 83.1999 265.834 85.088C265.599 84.853 265.365 84.6184 265.13 84.3834C263.398 85.8227 261.93 85.588 260.725 83.6787C260.164 81.2825 260.928 79.5209 263.016 78.3937Z" fill="#252525"/>
<path fill-rule="evenodd" clip-rule="evenodd" d="M262.663 79.4508C265.069 79.213 266.067 80.27 265.658 82.6218C264.521 84.6294 263.111 84.8644 261.43 83.3264C261.044 81.7254 261.455 80.4334 262.663 79.4508Z" fill="#F5F5F5"/>
<path fill-rule="evenodd" clip-rule="evenodd" d="M100.238 84.0311C100.708 84.0311 101.178 84.0311 101.648 84.0311C101.648 84.3834 101.648 84.7358 101.648 85.0881C101.178 85.0881 100.708 85.0881 100.238 85.0881C100.238 84.7358 100.238 84.3834 100.238 84.0311Z" fill="#2C2C2C"/>
<path fill-rule="evenodd" clip-rule="evenodd" d="M115.741 81.2125C115.38 82.4365 115.145 83.7281 115.036 85.0881C114.652 84.2908 114.182 84.2319 113.627 84.9119C110.245 85.4013 109.012 83.9332 109.927 80.5078C111.232 78.1916 112.935 77.8392 115.036 79.4508C115.271 78.3938 115.506 77.3368 115.741 76.2798C116.082 77.9164 116.082 79.5607 115.741 81.2125Z" fill="#1E1E1E"/>
<path fill-rule="evenodd" clip-rule="evenodd" d="M111.513 79.4508C115.337 79.5773 116.041 81.1628 113.627 84.2073C110.591 84.6579 109.592 83.4247 110.632 80.5078C111 80.2002 111.294 79.8479 111.513 79.4508Z" fill="#EFEFEF"/>
<path fill-rule="evenodd" clip-rule="evenodd" d="M186.56 78.3938C187.744 78.2423 188.742 78.5946 189.554 79.4508C189.663 79.1661 189.839 78.9311 190.083 78.7461C190.481 80.8791 190.363 82.9931 189.731 85.0881C189.496 84.8531 189.261 84.6184 189.026 84.3834C187.295 85.8227 185.826 85.588 184.622 83.6787C183.948 81.378 184.594 79.6163 186.56 78.3938Z" fill="#252525"/>
<path fill-rule="evenodd" clip-rule="evenodd" d="M186.207 79.4508C188.789 79.0382 189.905 80.0952 189.554 82.6218C188.525 84.4969 187.116 84.8492 185.326 83.6788C184.935 82.1 185.228 80.6907 186.207 79.4508Z" fill="#F3F3F3"/>
<path fill-rule="evenodd" clip-rule="evenodd" d="M205.585 83.6787C205.894 83.6326 206.129 83.7499 206.29 84.0311C204.479 86.7993 204.244 86.6817 205.585 83.6787Z" fill="#2B2B2B"/>
<path fill-rule="evenodd" clip-rule="evenodd" d="M241.171 82.2695C241.114 83.0999 241.172 83.9219 241.347 84.7358C241.413 83.8423 241.589 83.0203 241.876 82.2695C241.876 83.2091 241.876 84.1485 241.876 85.0881C241.523 85.0881 241.171 85.0881 240.819 85.0881C240.711 84.0716 240.828 83.132 241.171 82.2695Z" fill="#5D5D5D"/>
<path fill-rule="evenodd" clip-rule="evenodd" d="M249.627 79.4508C249.114 81.2469 248.879 83.1259 248.922 85.0881C248.11 87.1386 246.583 87.9021 244.342 87.3782C242.924 85.8639 243.042 85.6292 244.694 86.6736C246.461 87.1996 247.636 86.6123 248.218 84.9119C248.1 84.7357 247.983 84.5596 247.865 84.3834C245.201 85.86 243.674 85.0965 243.285 82.0932C243.646 79.6153 245.055 78.441 247.513 78.5699C247.924 78.9811 248.335 79.3919 248.746 79.8031C248.834 79.4071 249.01 79.0547 249.275 78.7461C249.556 78.9071 249.673 79.1421 249.627 79.4508Z" fill="#1B1B1B"/>
<path fill-rule="evenodd" clip-rule="evenodd" d="M245.399 79.4508C248.038 79.0287 249.036 80.0857 248.394 82.6218C247.273 84.6484 245.864 84.8834 244.166 83.3264C243.772 81.7681 244.183 80.4761 245.399 79.4508Z" fill="#F2F2F2"/>
</g>
<defs>
<clipPath id="clip0_179_1258">
<rect width="296.663" height="136" fill="white"/>
</clipPath>
</defs>
</svg>
