<svg width="30" height="30" viewBox="0 0 30 30" fill="none" xmlns="http://www.w3.org/2000/svg">
<mask id="mask0_318_682" style="mask-type:alpha" maskUnits="userSpaceOnUse" x="0" y="0" width="30" height="30">
<rect width="30" height="30" fill="#D9D9D9"/>
</mask>
<g mask="url(#mask0_318_682)">
<path d="M4.99805 25.001C4.31055 25.001 3.72201 24.7562 3.23242 24.2666C2.74284 23.777 2.49805 23.1885 2.49805 22.501V7.50098C2.49805 6.81348 2.74284 6.22494 3.23242 5.73535C3.72201 5.24577 4.31055 5.00098 4.99805 5.00098H17.6231C17.5397 5.41764 17.498 5.83431 17.498 6.25098C17.498 6.66764 17.5397 7.08431 17.6231 7.50098H4.99805L14.998 13.751L19.5606 10.9072C19.8522 11.1781 20.1699 11.4124 20.5137 11.6104C20.8574 11.8083 21.2168 11.9801 21.5918 12.126L14.998 16.251L4.99805 10.001V22.501H24.9981V12.376C25.4772 12.2718 25.9251 12.126 26.3418 11.9385C26.7585 11.751 27.1439 11.5218 27.4981 11.251V22.501C27.4981 23.1885 27.2533 23.777 26.7637 24.2666C26.2741 24.7562 25.6856 25.001 24.9981 25.001H4.99805ZM23.7481 10.001C22.7064 10.001 21.821 9.63639 21.0918 8.90723C20.3626 8.17806 19.9981 7.29264 19.9981 6.25098C19.9981 5.20931 20.3626 4.32389 21.0918 3.59473C21.821 2.86556 22.7064 2.50098 23.7481 2.50098C24.7897 2.50098 25.6751 2.86556 26.4043 3.59473C27.1335 4.32389 27.4981 5.20931 27.4981 6.25098C27.4981 7.29264 27.1335 8.17806 26.4043 8.90723C25.6751 9.63639 24.7897 10.001 23.7481 10.001Z" fill="#1C1B1F"/>
</g>
</svg>
